<svg width="232" height="232" viewBox="0 0 232 232" fill="none" xmlns="http://www.w3.org/2000/svg">
<path d="M8 0H0V8H8V0Z" fill="black"/>
<path d="M8 8H0V16H8V8Z" fill="black"/>
<path d="M8 16H0V24H8V16Z" fill="black"/>
<path d="M8 24H0V32H8V24Z" fill="black"/>
<path d="M8 32H0V40H8V32Z" fill="black"/>
<path d="M8 40H0V48H8V40Z" fill="black"/>
<path d="M8 48H0V56H8V48Z" fill="black"/>
<path d="M8 64H0V72H8V64Z" fill="black"/>
<path d="M8 72H0V80H8V72Z" fill="black"/>
<path d="M8 88H0V96H8V88Z" fill="black"/>
<path d="M8 104H0V112H8V104Z" fill="black"/>
<path d="M8 136H0V144H8V136Z" fill="black"/>
<path d="M8 152H0V160H8V152Z" fill="black"/>
<path d="M8 160H0V168H8V160Z" fill="black"/>
<path d="M8 176H0V184H8V176Z" fill="black"/>
<path d="M8 184H0V192H8V184Z" fill="black"/>
<path d="M8 192H0V200H8V192Z" fill="black"/>
<path d="M8 200H0V208H8V200Z" fill="black"/>
<path d="M8 208H0V216H8V208Z" fill="black"/>
<path d="M8 216H0V224H8V216Z" fill="black"/>
<path d="M8 224H0V232H8V224Z" fill="black"/>
<path d="M16 0H8V8H16V0Z" fill="black"/>
<path d="M16 48H8V56H16V48Z" fill="black"/>
<path d="M16 64H8V72H16V64Z" fill="black"/>
<path d="M16 72H8V80H16V72Z" fill="black"/>
<path d="M16 88H8V96H16V88Z" fill="black"/>
<path d="M16 96H8V104H16V96Z" fill="black"/>
<path d="M16 120H8V128H16V120Z" fill="black"/>
<path d="M16 128H8V136H16V128Z" fill="black"/>
<path d="M16 144H8V152H16V144Z" fill="black"/>
<path d="M16 152H8V160H16V152Z" fill="black"/>
<path d="M16 176H8V184H16V176Z" fill="black"/>
<path d="M16 224H8V232H16V224Z" fill="black"/>
<path d="M24 0H16V8H24V0Z" fill="black"/>
<path d="M24 16H16V24H24V16Z" fill="black"/>
<path d="M24 24H16V32H24V24Z" fill="black"/>
<path d="M24 32H16V40H24V32Z" fill="black"/>
<path d="M24 48H16V56H24V48Z" fill="black"/>
<path d="M24 64H16V72H24V64Z" fill="black"/>
<path d="M24 72H16V80H24V72Z" fill="black"/>
<path d="M24 80H16V88H24V80Z" fill="black"/>
<path d="M24 88H16V96H24V88Z" fill="black"/>
<path d="M24 144H16V152H24V144Z" fill="black"/>
<path d="M24 160H16V168H24V160Z" fill="black"/>
<path d="M24 176H16V184H24V176Z" fill="black"/>
<path d="M24 192H16V200H24V192Z" fill="black"/>
<path d="M24 200H16V208H24V200Z" fill="black"/>
<path d="M24 208H16V216H24V208Z" fill="black"/>
<path d="M24 224H16V232H24V224Z" fill="black"/>
<path d="M32 0H24V8H32V0Z" fill="black"/>
<path d="M32 16H24V24H32V16Z" fill="black"/>
<path d="M32 24H24V32H32V24Z" fill="black"/>
<path d="M32 32H24V40H32V32Z" fill="black"/>
<path d="M32 48H24V56H32V48Z" fill="black"/>
<path d="M32 64H24V72H32V64Z" fill="black"/>
<path d="M32 96H24V104H32V96Z" fill="black"/>
<path d="M32 112H24V120H32V112Z" fill="black"/>
<path d="M32 120H24V128H32V120Z" fill="black"/>
<path d="M32 136H24V144H32V136Z" fill="black"/>
<path d="M32 152H24V160H32V152Z" fill="black"/>
<path d="M32 160H24V168H32V160Z" fill="black"/>
<path d="M32 176H24V184H32V176Z" fill="black"/>
<path d="M32 192H24V200H32V192Z" fill="black"/>
<path d="M32 200H24V208H32V200Z" fill="black"/>
<path d="M32 208H24V216H32V208Z" fill="black"/>
<path d="M32 224H24V232H32V224Z" fill="black"/>
<path d="M40 0H32V8H40V0Z" fill="black"/>
<path d="M40 16H32V24H40V16Z" fill="black"/>
<path d="M40 24H32V32H40V24Z" fill="black"/>
<path d="M40 32H32V40H40V32Z" fill="black"/>
<path d="M40 48H32V56H40V48Z" fill="black"/>
<path d="M40 72H32V80H40V72Z" fill="black"/>
<path d="M40 80H32V88H40V80Z" fill="black"/>
<path d="M40 96H32V104H40V96Z" fill="black"/>
<path d="M40 112H32V120H40V112Z" fill="black"/>
<path d="M40 128H32V136H40V128Z" fill="black"/>
<path d="M40 160H32V168H40V160Z" fill="black"/>
<path d="M40 176H32V184H40V176Z" fill="black"/>
<path d="M40 192H32V200H40V192Z" fill="black"/>
<path d="M40 200H32V208H40V200Z" fill="black"/>
<path d="M40 208H32V216H40V208Z" fill="black"/>
<path d="M40 224H32V232H40V224Z" fill="black"/>
<path d="M48 0H40V8H48V0Z" fill="black"/>
<path d="M48 48H40V56H48V48Z" fill="black"/>
<path d="M48 80H40V88H48V80Z" fill="black"/>
<path d="M48 88H40V96H48V88Z" fill="black"/>
<path d="M48 96H40V104H48V96Z" fill="black"/>
<path d="M48 120H40V128H48V120Z" fill="black"/>
<path d="M48 136H40V144H48V136Z" fill="black"/>
<path d="M48 144H40V152H48V144Z" fill="black"/>
<path d="M48 152H40V160H48V152Z" fill="black"/>
<path d="M48 176H40V184H48V176Z" fill="black"/>
<path d="M48 224H40V232H48V224Z" fill="black"/>
<path d="M56 0H48V8H56V0Z" fill="black"/>
<path d="M56 8H48V16H56V8Z" fill="black"/>
<path d="M56 16H48V24H56V16Z" fill="black"/>
<path d="M56 24H48V32H56V24Z" fill="black"/>
<path d="M56 32H48V40H56V32Z" fill="black"/>
<path d="M56 40H48V48H56V40Z" fill="black"/>
<path d="M56 48H48V56H56V48Z" fill="black"/>
<path d="M56 64H48V72H56V64Z" fill="black"/>
<path d="M56 80H48V88H56V80Z" fill="black"/>
<path d="M56 96H48V104H56V96Z" fill="black"/>
<path d="M56 112H48V120H56V112Z" fill="black"/>
<path d="M56 128H48V136H56V128Z" fill="black"/>
<path d="M56 144H48V152H56V144Z" fill="black"/>
<path d="M56 160H48V168H56V160Z" fill="black"/>
<path d="M56 176H48V184H56V176Z" fill="black"/>
<path d="M56 184H48V192H56V184Z" fill="black"/>
<path d="M56 192H48V200H56V192Z" fill="black"/>
<path d="M56 200H48V208H56V200Z" fill="black"/>
<path d="M56 208H48V216H56V208Z" fill="black"/>
<path d="M56 216H48V224H56V216Z" fill="black"/>
<path d="M56 224H48V232H56V224Z" fill="black"/>
<path d="M64 96H56V104H64V96Z" fill="black"/>
<path d="M64 112H56V120H64V112Z" fill="black"/>
<path d="M64 136H56V144H64V136Z" fill="black"/>
<path d="M72 0H64V8H72V0Z" fill="black"/>
<path d="M72 16H64V24H72V16Z" fill="black"/>
<path d="M72 24H64V32H72V24Z" fill="black"/>
<path d="M72 32H64V40H72V32Z" fill="black"/>
<path d="M72 48H64V56H72V48Z" fill="black"/>
<path d="M72 64H64V72H72V64Z" fill="black"/>
<path d="M72 72H64V80H72V72Z" fill="black"/>
<path d="M72 80H64V88H72V80Z" fill="black"/>
<path d="M72 88H64V96H72V88Z" fill="black"/>
<path d="M72 104H64V112H72V104Z" fill="black"/>
<path d="M72 120H64V128H72V120Z" fill="black"/>
<path d="M72 128H64V136H72V128Z" fill="black"/>
<path d="M72 136H64V144H72V136Z" fill="black"/>
<path d="M72 160H64V168H72V160Z" fill="black"/>
<path d="M72 168H64V176H72V168Z" fill="black"/>
<path d="M72 200H64V208H72V200Z" fill="black"/>
<path d="M72 208H64V216H72V208Z" fill="black"/>
<path d="M72 216H64V224H72V216Z" fill="black"/>
<path d="M72 224H64V232H72V224Z" fill="black"/>
<path d="M80 8H72V16H80V8Z" fill="black"/>
<path d="M80 16H72V24H80V16Z" fill="black"/>
<path d="M80 24H72V32H80V24Z" fill="black"/>
<path d="M80 80H72V88H80V80Z" fill="black"/>
<path d="M80 88H72V96H80V88Z" fill="black"/>
<path d="M80 96H72V104H80V96Z" fill="black"/>
<path d="M80 104H72V112H80V104Z" fill="black"/>
<path d="M80 112H72V120H80V112Z" fill="black"/>
<path d="M80 120H72V128H80V120Z" fill="black"/>
<path d="M80 128H72V136H80V128Z" fill="black"/>
<path d="M80 144H72V152H80V144Z" fill="black"/>
<path d="M80 168H72V176H80V168Z" fill="black"/>
<path d="M80 184H72V192H80V184Z" fill="black"/>
<path d="M80 192H72V200H80V192Z" fill="black"/>
<path d="M80 200H72V208H80V200Z" fill="black"/>
<path d="M80 224H72V232H80V224Z" fill="black"/>
<path d="M88 8H80V16H88V8Z" fill="black"/>
<path d="M88 16H80V24H88V16Z" fill="black"/>
<path d="M88 24H80V32H88V24Z" fill="black"/>
<path d="M88 40H80V48H88V40Z" fill="black"/>
<path d="M88 48H80V56H88V48Z" fill="black"/>
<path d="M88 56H80V64H88V56Z" fill="black"/>
<path d="M88 64H80V72H88V64Z" fill="black"/>
<path d="M88 72H80V80H88V72Z" fill="black"/>
<path d="M88 80H80V88H88V80Z" fill="black"/>
<path d="M88 88H80V96H88V88Z" fill="black"/>
<path d="M88 96H80V104H88V96Z" fill="black"/>
<path d="M88 112H80V120H88V112Z" fill="black"/>
<path d="M88 128H80V136H88V128Z" fill="black"/>
<path d="M88 136H80V144H88V136Z" fill="black"/>
<path d="M88 144H80V152H88V144Z" fill="black"/>
<path d="M88 176H80V184H88V176Z" fill="black"/>
<path d="M88 184H80V192H88V184Z" fill="black"/>
<path d="M88 192H80V200H88V192Z" fill="black"/>
<path d="M88 216H80V224H88V216Z" fill="black"/>
<path d="M96 8H88V16H96V8Z" fill="black"/>
<path d="M96 56H88V64H96V56Z" fill="black"/>
<path d="M96 72H88V80H96V72Z" fill="black"/>
<path d="M96 80H88V88H96V80Z" fill="black"/>
<path d="M96 96H88V104H96V96Z" fill="black"/>
<path d="M96 120H88V128H96V120Z" fill="black"/>
<path d="M96 128H88V136H96V128Z" fill="black"/>
<path d="M96 136H88V144H96V136Z" fill="black"/>
<path d="M96 168H88V176H96V168Z" fill="black"/>
<path d="M96 176H88V184H96V176Z" fill="black"/>
<path d="M96 224H88V232H96V224Z" fill="black"/>
<path d="M104 0H96V8H104V0Z" fill="black"/>
<path d="M104 48H96V56H104V48Z" fill="black"/>
<path d="M104 64H96V72H104V64Z" fill="black"/>
<path d="M104 72H96V80H104V72Z" fill="black"/>
<path d="M104 80H96V88H104V80Z" fill="black"/>
<path d="M104 112H96V120H104V112Z" fill="black"/>
<path d="M104 128H96V136H104V128Z" fill="black"/>
<path d="M104 152H96V160H104V152Z" fill="black"/>
<path d="M104 160H96V168H104V160Z" fill="black"/>
<path d="M104 168H96V176H104V168Z" fill="black"/>
<path d="M104 184H96V192H104V184Z" fill="black"/>
<path d="M104 216H96V224H104V216Z" fill="black"/>
<path d="M104 224H96V232H104V224Z" fill="black"/>
<path d="M112 0H104V8H112V0Z" fill="black"/>
<path d="M112 8H104V16H112V8Z" fill="black"/>
<path d="M112 16H104V24H112V16Z" fill="black"/>
<path d="M112 24H104V32H112V24Z" fill="black"/>
<path d="M112 32H104V40H112V32Z" fill="black"/>
<path d="M112 72H104V80H112V72Z" fill="black"/>
<path d="M112 88H104V96H112V88Z" fill="black"/>
<path d="M112 96H104V104H112V96Z" fill="black"/>
<path d="M112 112H104V120H112V112Z" fill="black"/>
<path d="M112 128H104V136H112V128Z" fill="black"/>
<path d="M112 136H104V144H112V136Z" fill="black"/>
<path d="M112 176H104V184H112V176Z" fill="black"/>
<path d="M112 184H104V192H112V184Z" fill="black"/>
<path d="M112 192H104V200H112V192Z" fill="black"/>
<path d="M112 224H104V232H112V224Z" fill="black"/>
<path d="M120 8H112V16H120V8Z" fill="black"/>
<path d="M120 16H112V24H120V16Z" fill="black"/>
<path d="M120 32H112V40H120V32Z" fill="black"/>
<path d="M120 40H112V48H120V40Z" fill="black"/>
<path d="M120 48H112V56H120V48Z" fill="black"/>
<path d="M120 64H112V72H120V64Z" fill="black"/>
<path d="M120 80H112V88H120V80Z" fill="black"/>
<path d="M120 88H112V96H120V88Z" fill="black"/>
<path d="M120 96H112V104H120V96Z" fill="black"/>
<path d="M120 104H112V112H120V104Z" fill="black"/>
<path d="M120 112H112V120H120V112Z" fill="black"/>
<path d="M120 128H112V136H120V128Z" fill="black"/>
<path d="M120 136H112V144H120V136Z" fill="black"/>
<path d="M120 168H112V176H120V168Z" fill="black"/>
<path d="M120 208H112V216H120V208Z" fill="black"/>
<path d="M120 216H112V224H120V216Z" fill="black"/>
<path d="M120 224H112V232H120V224Z" fill="black"/>
<path d="M128 24H120V32H128V24Z" fill="black"/>
<path d="M128 32H120V40H128V32Z" fill="black"/>
<path d="M128 104H120V112H128V104Z" fill="black"/>
<path d="M128 136H120V144H128V136Z" fill="black"/>
<path d="M128 144H120V152H128V144Z" fill="black"/>
<path d="M128 160H120V168H128V160Z" fill="black"/>
<path d="M128 200H120V208H128V200Z" fill="black"/>
<path d="M128 224H120V232H128V224Z" fill="black"/>
<path d="M136 0H128V8H136V0Z" fill="black"/>
<path d="M136 8H128V16H136V8Z" fill="black"/>
<path d="M136 32H128V40H136V32Z" fill="black"/>
<path d="M136 48H128V56H136V48Z" fill="black"/>
<path d="M136 56H128V64H136V56Z" fill="black"/>
<path d="M136 64H128V72H136V64Z" fill="black"/>
<path d="M136 72H128V80H136V72Z" fill="black"/>
<path d="M136 88H128V96H136V88Z" fill="black"/>
<path d="M136 104H128V112H136V104Z" fill="black"/>
<path d="M136 144H128V152H136V144Z" fill="black"/>
<path d="M136 160H128V168H136V160Z" fill="black"/>
<path d="M136 168H128V176H136V168Z" fill="black"/>
<path d="M136 200H128V208H136V200Z" fill="black"/>
<path d="M136 216H128V224H136V216Z" fill="black"/>
<path d="M144 0H136V8H144V0Z" fill="black"/>
<path d="M144 24H136V32H144V24Z" fill="black"/>
<path d="M144 32H136V40H144V32Z" fill="black"/>
<path d="M144 40H136V48H144V40Z" fill="black"/>
<path d="M144 56H136V64H144V56Z" fill="black"/>
<path d="M144 64H136V72H144V64Z" fill="black"/>
<path d="M144 80H136V88H144V80Z" fill="black"/>
<path d="M144 96H136V104H144V96Z" fill="black"/>
<path d="M144 112H136V120H144V112Z" fill="black"/>
<path d="M144 152H136V160H144V152Z" fill="black"/>
<path d="M144 160H136V168H144V160Z" fill="black"/>
<path d="M144 176H136V184H144V176Z" fill="black"/>
<path d="M144 192H136V200H144V192Z" fill="black"/>
<path d="M144 200H136V208H144V200Z" fill="black"/>
<path d="M152 0H144V8H152V0Z" fill="black"/>
<path d="M152 8H144V16H152V8Z" fill="black"/>
<path d="M152 16H144V24H152V16Z" fill="black"/>
<path d="M152 32H144V40H152V32Z" fill="black"/>
<path d="M152 48H144V56H152V48Z" fill="black"/>
<path d="M152 64H144V72H152V64Z" fill="black"/>
<path d="M152 80H144V88H152V80Z" fill="black"/>
<path d="M152 88H144V96H152V88Z" fill="black"/>
<path d="M152 96H144V104H152V96Z" fill="black"/>
<path d="M152 112H144V120H152V112Z" fill="black"/>
<path d="M152 128H144V136H152V128Z" fill="black"/>
<path d="M152 144H144V152H152V144Z" fill="black"/>
<path d="M152 152H144V160H152V152Z" fill="black"/>
<path d="M152 160H144V168H152V160Z" fill="black"/>
<path d="M152 200H144V208H152V200Z" fill="black"/>
<path d="M152 216H144V224H152V216Z" fill="black"/>
<path d="M160 0H152V8H160V0Z" fill="black"/>
<path d="M160 16H152V24H160V16Z" fill="black"/>
<path d="M160 24H152V32H160V24Z" fill="black"/>
<path d="M160 32H152V40H160V32Z" fill="black"/>
<path d="M160 40H152V48H160V40Z" fill="black"/>
<path d="M160 56H152V64H160V56Z" fill="black"/>
<path d="M160 72H152V80H160V72Z" fill="black"/>
<path d="M160 104H152V112H160V104Z" fill="black"/>
<path d="M160 112H152V120H160V112Z" fill="black"/>
<path d="M160 120H152V128H160V120Z" fill="black"/>
<path d="M160 128H152V136H160V128Z" fill="black"/>
<path d="M160 160H152V168H160V160Z" fill="black"/>
<path d="M160 176H152V184H160V176Z" fill="black"/>
<path d="M160 224H152V232H160V224Z" fill="black"/>
<path d="M168 16H160V24H168V16Z" fill="black"/>
<path d="M168 40H160V48H168V40Z" fill="black"/>
<path d="M168 48H160V56H168V48Z" fill="black"/>
<path d="M168 72H160V80H168V72Z" fill="black"/>
<path d="M168 120H160V128H168V120Z" fill="black"/>
<path d="M168 128H160V136H168V128Z" fill="black"/>
<path d="M168 144H160V152H168V144Z" fill="black"/>
<path d="M168 160H160V168H168V160Z" fill="black"/>
<path d="M168 168H160V176H168V168Z" fill="black"/>
<path d="M168 176H160V184H168V176Z" fill="black"/>
<path d="M168 184H160V192H168V184Z" fill="black"/>
<path d="M168 192H160V200H168V192Z" fill="black"/>
<path d="M168 200H160V208H168V200Z" fill="black"/>
<path d="M168 208H160V216H168V208Z" fill="black"/>
<path d="M168 216H160V224H168V216Z" fill="black"/>
<path d="M168 224H160V232H168V224Z" fill="black"/>
<path d="M176 64H168V72H176V64Z" fill="black"/>
<path d="M176 72H168V80H176V72Z" fill="black"/>
<path d="M176 80H168V88H176V80Z" fill="black"/>
<path d="M176 128H168V136H176V128Z" fill="black"/>
<path d="M176 136H168V144H176V136Z" fill="black"/>
<path d="M176 144H168V152H176V144Z" fill="black"/>
<path d="M176 160H168V168H176V160Z" fill="black"/>
<path d="M176 192H168V200H176V192Z" fill="black"/>
<path d="M176 200H168V208H176V200Z" fill="black"/>
<path d="M176 208H168V216H176V208Z" fill="black"/>
<path d="M176 216H168V224H176V216Z" fill="black"/>
<path d="M184 0H176V8H184V0Z" fill="black"/>
<path d="M184 8H176V16H184V8Z" fill="black"/>
<path d="M184 16H176V24H184V16Z" fill="black"/>
<path d="M184 24H176V32H184V24Z" fill="black"/>
<path d="M184 32H176V40H184V32Z" fill="black"/>
<path d="M184 40H176V48H184V40Z" fill="black"/>
<path d="M184 48H176V56H184V48Z" fill="black"/>
<path d="M184 72H176V80H184V72Z" fill="black"/>
<path d="M184 80H176V88H184V80Z" fill="black"/>
<path d="M184 104H176V112H184V104Z" fill="black"/>
<path d="M184 112H176V120H184V112Z" fill="black"/>
<path d="M184 160H176V168H184V160Z" fill="black"/>
<path d="M184 176H176V184H184V176Z" fill="black"/>
<path d="M184 192H176V200H184V192Z" fill="black"/>
<path d="M192 0H184V8H192V0Z" fill="black"/>
<path d="M192 48H184V56H192V48Z" fill="black"/>
<path d="M192 96H184V104H192V96Z" fill="black"/>
<path d="M192 136H184V144H192V136Z" fill="black"/>
<path d="M192 152H184V160H192V152Z" fill="black"/>
<path d="M192 160H184V168H192V160Z" fill="black"/>
<path d="M192 192H184V200H192V192Z" fill="black"/>
<path d="M192 208H184V216H192V208Z" fill="black"/>
<path d="M192 216H184V224H192V216Z" fill="black"/>
<path d="M192 224H184V232H192V224Z" fill="black"/>
<path d="M200 0H192V8H200V0Z" fill="black"/>
<path d="M200 16H192V24H200V16Z" fill="black"/>
<path d="M200 24H192V32H200V24Z" fill="black"/>
<path d="M200 32H192V40H200V32Z" fill="black"/>
<path d="M200 48H192V56H200V48Z" fill="black"/>
<path d="M200 64H192V72H200V64Z" fill="black"/>
<path d="M200 72H192V80H200V72Z" fill="black"/>
<path d="M200 80H192V88H200V80Z" fill="black"/>
<path d="M200 120H192V128H200V120Z" fill="black"/>
<path d="M200 128H192V136H200V128Z" fill="black"/>
<path d="M200 144H192V152H200V144Z" fill="black"/>
<path d="M200 160H192V168H200V160Z" fill="black"/>
<path d="M200 168H192V176H200V168Z" fill="black"/>
<path d="M200 176H192V184H200V176Z" fill="black"/>
<path d="M200 184H192V192H200V184Z" fill="black"/>
<path d="M200 192H192V200H200V192Z" fill="black"/>
<path d="M200 200H192V208H200V200Z" fill="black"/>
<path d="M200 216H192V224H200V216Z" fill="black"/>
<path d="M208 0H200V8H208V0Z" fill="black"/>
<path d="M208 16H200V24H208V16Z" fill="black"/>
<path d="M208 24H200V32H208V24Z" fill="black"/>
<path d="M208 32H200V40H208V32Z" fill="black"/>
<path d="M208 48H200V56H208V48Z" fill="black"/>
<path d="M208 64H200V72H208V64Z" fill="black"/>
<path d="M208 96H200V104H208V96Z" fill="black"/>
<path d="M208 128H200V136H208V128Z" fill="black"/>
<path d="M208 136H200V144H208V136Z" fill="black"/>
<path d="M208 160H200V168H208V160Z" fill="black"/>
<path d="M208 168H200V176H208V168Z" fill="black"/>
<path d="M208 176H200V184H208V176Z" fill="black"/>
<path d="M208 184H200V192H208V184Z" fill="black"/>
<path d="M208 200H200V208H208V200Z" fill="black"/>
<path d="M208 216H200V224H208V216Z" fill="black"/>
<path d="M216 0H208V8H216V0Z" fill="black"/>
<path d="M216 16H208V24H216V16Z" fill="black"/>
<path d="M216 24H208V32H216V24Z" fill="black"/>
<path d="M216 32H208V40H216V32Z" fill="black"/>
<path d="M216 48H208V56H216V48Z" fill="black"/>
<path d="M216 64H208V72H216V64Z" fill="black"/>
<path d="M216 80H208V88H216V80Z" fill="black"/>
<path d="M216 96H208V104H216V96Z" fill="black"/>
<path d="M216 104H208V112H216V104Z" fill="black"/>
<path d="M216 112H208V120H216V112Z" fill="black"/>
<path d="M216 136H208V144H216V136Z" fill="black"/>
<path d="M216 144H208V152H216V144Z" fill="black"/>
<path d="M216 152H208V160H216V152Z" fill="black"/>
<path d="M216 160H208V168H216V160Z" fill="black"/>
<path d="M216 168H208V176H216V168Z" fill="black"/>
<path d="M216 192H208V200H216V192Z" fill="black"/>
<path d="M216 208H208V216H216V208Z" fill="black"/>
<path d="M224 0H216V8H224V0Z" fill="black"/>
<path d="M224 48H216V56H224V48Z" fill="black"/>
<path d="M224 80H216V88H224V80Z" fill="black"/>
<path d="M224 104H216V112H224V104Z" fill="black"/>
<path d="M224 112H216V120H224V112Z" fill="black"/>
<path d="M224 120H216V128H224V120Z" fill="black"/>
<path d="M224 128H216V136H224V128Z" fill="black"/>
<path d="M224 136H216V144H224V136Z" fill="black"/>
<path d="M224 168H216V176H224V168Z" fill="black"/>
<path d="M224 176H216V184H224V176Z" fill="black"/>
<path d="M224 192H216V200H224V192Z" fill="black"/>
<path d="M224 200H216V208H224V200Z" fill="black"/>
<path d="M224 216H216V224H224V216Z" fill="black"/>
<path d="M224 224H216V232H224V224Z" fill="black"/>
<path d="M232 0H224V8H232V0Z" fill="black"/>
<path d="M232 8H224V16H232V8Z" fill="black"/>
<path d="M232 16H224V24H232V16Z" fill="black"/>
<path d="M232 24H224V32H232V24Z" fill="black"/>
<path d="M232 32H224V40H232V32Z" fill="black"/>
<path d="M232 40H224V48H232V40Z" fill="black"/>
<path d="M232 48H224V56H232V48Z" fill="black"/>
<path d="M232 64H224V72H232V64Z" fill="black"/>
<path d="M232 72H224V80H232V72Z" fill="black"/>
<path d="M232 88H224V96H232V88Z" fill="black"/>
<path d="M232 104H224V112H232V104Z" fill="black"/>
<path d="M232 112H224V120H232V112Z" fill="black"/>
<path d="M232 168H224V176H232V168Z" fill="black"/>
<path d="M232 200H224V208H232V200Z" fill="black"/>
<path d="M232 208H224V216H232V208Z" fill="black"/>
</svg>
