<svg width="96" height="84" viewBox="0 0 96 84" fill="none" xmlns="http://www.w3.org/2000/svg">
<path fill-rule="evenodd" clip-rule="evenodd" d="M19.7472 80.6376C18.5568 82.6767 16.416 83.8085 14.2176 83.8085C13.12 83.8085 12.0064 83.5263 10.9888 82.93C7.9392 81.1377 6.9152 77.2102 8.704 74.158L9.6352 72.5645C11.2832 72.0451 13.0176 71.763 14.8 71.8143H14.816C18.0896 71.9105 20.8288 73.3949 22.7008 75.5847L19.7472 80.6376ZM55.7216 65.3924H6.4C2.8672 65.3924 0 62.5197 0 58.9801C0 55.4406 2.8672 52.5679 6.4 52.5679H21.328L40.0992 20.4744L34.304 10.5643C32.5152 7.50882 33.5392 3.5813 36.5888 1.78907C39.6384 4.14488e-05 43.5584 1.0228 45.3472 4.07825L47.5168 7.78775L49.6864 4.07825C51.472 1.0228 55.392 4.14488e-05 58.4448 1.78907C61.4944 3.5813 62.5184 7.50882 60.7296 10.5643L36.1632 52.5679H49.5392C51.5392 53.9016 53.2576 55.665 54.496 57.8259L54.5056 57.8388C55.9136 60.2914 56.224 62.9461 55.7216 65.3924ZM89.6 65.3924H81.2064L86.3328 74.1548C88.1216 77.207 87.0976 81.1377 84.048 82.9268C83.0304 83.5263 81.9168 83.8053 80.8192 83.8053C78.6208 83.8053 76.4832 82.6703 75.2896 80.6344L55.6064 46.9796C52.9376 42.0133 53.0368 35.9921 55.9552 31.1316L58.5984 26.7296L73.7056 52.5679H89.6C93.1328 52.5679 96 55.4406 96 58.9801C96 62.5197 93.1328 65.3924 89.6 65.3924Z" fill="white"/>
</svg>
