<svg width="83" height="92" viewBox="0 0 83 92" fill="none" xmlns="http://www.w3.org/2000/svg">
<path d="M14.3876 2.33833L64.7269 31.2647L53.9372 42.0478L14.3876 2.33833ZM3.95841 0L50.1667 46L3.96224 92C1.61098 90.9612 0 88.6497 0 85.9625C0 85.8743 0 85.7862 0.00383567 85.7018V85.7133V6.2905C0 6.21767 0 6.1295 0 6.04133C0 3.35417 1.61098 1.04267 3.92005 0.0191667L3.96224 0.00383333L3.95841 0ZM80.3726 40.6103C81.9605 41.7872 82.977 43.6578 82.977 45.7623C82.977 45.8467 82.977 45.9272 82.9732 46.0115V46C82.9885 46.1648 83 46.3603 83 46.5558C83 48.5338 82.0411 50.2895 80.5605 51.3782L80.5452 51.3897L69.7554 57.4962L58.072 46L69.7593 34.3198L80.3726 40.6103ZM14.3876 89.6617L53.941 49.9522L64.7307 60.7353L14.3876 89.6617Z" fill="white"/>
</svg>
