<svg width="264" height="264" viewBox="0 0 264 264" fill="none" xmlns="http://www.w3.org/2000/svg">
<path d="M8 0H0V8H8V0Z" fill="black"/>
<path d="M8 8H0V16H8V8Z" fill="black"/>
<path d="M8 16H0V24H8V16Z" fill="black"/>
<path d="M8 24H0V32H8V24Z" fill="black"/>
<path d="M8 32H0V40H8V32Z" fill="black"/>
<path d="M8 40H0V48H8V40Z" fill="black"/>
<path d="M8 48H0V56H8V48Z" fill="black"/>
<path d="M8 64H0V72H8V64Z" fill="black"/>
<path d="M8 72H0V80H8V72Z" fill="black"/>
<path d="M8 88H0V96H8V88Z" fill="black"/>
<path d="M8 112H0V120H8V112Z" fill="black"/>
<path d="M8 128H0V136H8V128Z" fill="black"/>
<path d="M8 136H0V144H8V136Z" fill="black"/>
<path d="M8 144H0V152H8V144Z" fill="black"/>
<path d="M8 160H0V168H8V160Z" fill="black"/>
<path d="M8 208H0V216H8V208Z" fill="black"/>
<path d="M8 216H0V224H8V216Z" fill="black"/>
<path d="M8 224H0V232H8V224Z" fill="black"/>
<path d="M8 232H0V240H8V232Z" fill="black"/>
<path d="M8 240H0V248H8V240Z" fill="black"/>
<path d="M8 248H0V256H8V248Z" fill="black"/>
<path d="M8 256H0V264H8V256Z" fill="black"/>
<path d="M16 0H8V8H16V0Z" fill="black"/>
<path d="M16 48H8V56H16V48Z" fill="black"/>
<path d="M16 64H8V72H16V64Z" fill="black"/>
<path d="M16 72H8V80H16V72Z" fill="black"/>
<path d="M16 80H8V88H16V80Z" fill="black"/>
<path d="M16 88H8V96H16V88Z" fill="black"/>
<path d="M16 104H8V112H16V104Z" fill="black"/>
<path d="M16 136H8V144H16V136Z" fill="black"/>
<path d="M16 144H8V152H16V144Z" fill="black"/>
<path d="M16 160H8V168H16V160Z" fill="black"/>
<path d="M16 168H8V176H16V168Z" fill="black"/>
<path d="M16 176H8V184H16V176Z" fill="black"/>
<path d="M16 184H8V192H16V184Z" fill="black"/>
<path d="M16 208H8V216H16V208Z" fill="black"/>
<path d="M16 256H8V264H16V256Z" fill="black"/>
<path d="M24 0H16V8H24V0Z" fill="black"/>
<path d="M24 16H16V24H24V16Z" fill="black"/>
<path d="M24 24H16V32H24V24Z" fill="black"/>
<path d="M24 32H16V40H24V32Z" fill="black"/>
<path d="M24 48H16V56H24V48Z" fill="black"/>
<path d="M24 72H16V80H24V72Z" fill="black"/>
<path d="M24 80H16V88H24V80Z" fill="black"/>
<path d="M24 96H16V104H24V96Z" fill="black"/>
<path d="M24 104H16V112H24V104Z" fill="black"/>
<path d="M24 112H16V120H24V112Z" fill="black"/>
<path d="M24 120H16V128H24V120Z" fill="black"/>
<path d="M24 144H16V152H24V144Z" fill="black"/>
<path d="M24 152H16V160H24V152Z" fill="black"/>
<path d="M24 208H16V216H24V208Z" fill="black"/>
<path d="M24 224H16V232H24V224Z" fill="black"/>
<path d="M24 232H16V240H24V232Z" fill="black"/>
<path d="M24 240H16V248H24V240Z" fill="black"/>
<path d="M24 256H16V264H24V256Z" fill="black"/>
<path d="M32 0H24V8H32V0Z" fill="black"/>
<path d="M32 16H24V24H32V16Z" fill="black"/>
<path d="M32 24H24V32H32V24Z" fill="black"/>
<path d="M32 32H24V40H32V32Z" fill="black"/>
<path d="M32 48H24V56H32V48Z" fill="black"/>
<path d="M32 64H24V72H32V64Z" fill="black"/>
<path d="M32 88H24V96H32V88Z" fill="black"/>
<path d="M32 96H24V104H32V96Z" fill="black"/>
<path d="M32 104H24V112H32V104Z" fill="black"/>
<path d="M32 112H24V120H32V112Z" fill="black"/>
<path d="M32 136H24V144H32V136Z" fill="black"/>
<path d="M32 152H24V160H32V152Z" fill="black"/>
<path d="M32 184H24V192H32V184Z" fill="black"/>
<path d="M32 192H24V200H32V192Z" fill="black"/>
<path d="M32 208H24V216H32V208Z" fill="black"/>
<path d="M32 224H24V232H32V224Z" fill="black"/>
<path d="M32 232H24V240H32V232Z" fill="black"/>
<path d="M32 240H24V248H32V240Z" fill="black"/>
<path d="M32 256H24V264H32V256Z" fill="black"/>
<path d="M40 0H32V8H40V0Z" fill="black"/>
<path d="M40 16H32V24H40V16Z" fill="black"/>
<path d="M40 24H32V32H40V24Z" fill="black"/>
<path d="M40 32H32V40H40V32Z" fill="black"/>
<path d="M40 48H32V56H40V48Z" fill="black"/>
<path d="M40 64H32V72H40V64Z" fill="black"/>
<path d="M40 104H32V112H40V104Z" fill="black"/>
<path d="M40 152H32V160H40V152Z" fill="black"/>
<path d="M40 168H32V176H40V168Z" fill="black"/>
<path d="M40 176H32V184H40V176Z" fill="black"/>
<path d="M40 192H32V200H40V192Z" fill="black"/>
<path d="M40 208H32V216H40V208Z" fill="black"/>
<path d="M40 224H32V232H40V224Z" fill="black"/>
<path d="M40 232H32V240H40V232Z" fill="black"/>
<path d="M40 240H32V248H40V240Z" fill="black"/>
<path d="M40 256H32V264H40V256Z" fill="black"/>
<path d="M48 0H40V8H48V0Z" fill="black"/>
<path d="M48 48H40V56H48V48Z" fill="black"/>
<path d="M48 88H40V96H48V88Z" fill="black"/>
<path d="M48 104H40V112H48V104Z" fill="black"/>
<path d="M48 112H40V120H48V112Z" fill="black"/>
<path d="M48 136H40V144H48V136Z" fill="black"/>
<path d="M48 144H40V152H48V144Z" fill="black"/>
<path d="M48 152H40V160H48V152Z" fill="black"/>
<path d="M48 160H40V168H48V160Z" fill="black"/>
<path d="M48 168H40V176H48V168Z" fill="black"/>
<path d="M48 184H40V192H48V184Z" fill="black"/>
<path d="M48 208H40V216H48V208Z" fill="black"/>
<path d="M48 256H40V264H48V256Z" fill="black"/>
<path d="M56 0H48V8H56V0Z" fill="black"/>
<path d="M56 8H48V16H56V8Z" fill="black"/>
<path d="M56 16H48V24H56V16Z" fill="black"/>
<path d="M56 24H48V32H56V24Z" fill="black"/>
<path d="M56 32H48V40H56V32Z" fill="black"/>
<path d="M56 40H48V48H56V40Z" fill="black"/>
<path d="M56 48H48V56H56V48Z" fill="black"/>
<path d="M56 64H48V72H56V64Z" fill="black"/>
<path d="M56 80H48V88H56V80Z" fill="black"/>
<path d="M56 96H48V104H56V96Z" fill="black"/>
<path d="M56 112H48V120H56V112Z" fill="black"/>
<path d="M56 128H48V136H56V128Z" fill="black"/>
<path d="M56 144H48V152H56V144Z" fill="black"/>
<path d="M56 160H48V168H56V160Z" fill="black"/>
<path d="M56 176H48V184H56V176Z" fill="black"/>
<path d="M56 192H48V200H56V192Z" fill="black"/>
<path d="M56 208H48V216H56V208Z" fill="black"/>
<path d="M56 216H48V224H56V216Z" fill="black"/>
<path d="M56 224H48V232H56V224Z" fill="black"/>
<path d="M56 232H48V240H56V232Z" fill="black"/>
<path d="M56 240H48V248H56V240Z" fill="black"/>
<path d="M56 248H48V256H56V248Z" fill="black"/>
<path d="M56 256H48V264H56V256Z" fill="black"/>
<path d="M64 96H56V104H64V96Z" fill="black"/>
<path d="M64 104H56V112H64V104Z" fill="black"/>
<path d="M64 120H56V128H64V120Z" fill="black"/>
<path d="M64 136H56V144H64V136Z" fill="black"/>
<path d="M64 144H56V152H64V144Z" fill="black"/>
<path d="M64 168H56V176H64V168Z" fill="black"/>
<path d="M72 0H64V8H72V0Z" fill="black"/>
<path d="M72 48H64V56H72V48Z" fill="black"/>
<path d="M72 56H64V64H72V56Z" fill="black"/>
<path d="M72 80H64V88H72V80Z" fill="black"/>
<path d="M72 96H64V104H72V96Z" fill="black"/>
<path d="M72 120H64V128H72V120Z" fill="black"/>
<path d="M72 128H64V136H72V128Z" fill="black"/>
<path d="M72 152H64V160H72V152Z" fill="black"/>
<path d="M72 160H64V168H72V160Z" fill="black"/>
<path d="M72 168H64V176H72V168Z" fill="black"/>
<path d="M72 184H64V192H72V184Z" fill="black"/>
<path d="M72 200H64V208H72V200Z" fill="black"/>
<path d="M72 224H64V232H72V224Z" fill="black"/>
<path d="M72 232H64V240H72V232Z" fill="black"/>
<path d="M72 248H64V256H72V248Z" fill="black"/>
<path d="M72 256H64V264H72V256Z" fill="black"/>
<path d="M80 8H72V16H80V8Z" fill="black"/>
<path d="M80 32H72V40H80V32Z" fill="black"/>
<path d="M80 64H72V72H80V64Z" fill="black"/>
<path d="M80 72H72V80H80V72Z" fill="black"/>
<path d="M80 88H72V96H80V88Z" fill="black"/>
<path d="M80 96H72V104H80V96Z" fill="black"/>
<path d="M80 120H72V128H80V120Z" fill="black"/>
<path d="M80 152H72V160H80V152Z" fill="black"/>
<path d="M80 184H72V192H80V184Z" fill="black"/>
<path d="M80 192H72V200H80V192Z" fill="black"/>
<path d="M80 200H72V208H80V200Z" fill="black"/>
<path d="M80 224H72V232H80V224Z" fill="black"/>
<path d="M80 248H72V256H80V248Z" fill="black"/>
<path d="M80 256H72V264H80V256Z" fill="black"/>
<path d="M88 8H80V16H88V8Z" fill="black"/>
<path d="M88 16H80V24H88V16Z" fill="black"/>
<path d="M88 40H80V48H88V40Z" fill="black"/>
<path d="M88 48H80V56H88V48Z" fill="black"/>
<path d="M88 56H80V64H88V56Z" fill="black"/>
<path d="M88 64H80V72H88V64Z" fill="black"/>
<path d="M88 80H80V88H88V80Z" fill="black"/>
<path d="M88 88H80V96H88V88Z" fill="black"/>
<path d="M88 112H80V120H88V112Z" fill="black"/>
<path d="M88 144H80V152H88V144Z" fill="black"/>
<path d="M88 152H80V160H88V152Z" fill="black"/>
<path d="M88 168H80V176H88V168Z" fill="black"/>
<path d="M88 176H80V184H88V176Z" fill="black"/>
<path d="M88 192H80V200H88V192Z" fill="black"/>
<path d="M88 200H80V208H88V200Z" fill="black"/>
<path d="M88 208H80V216H88V208Z" fill="black"/>
<path d="M88 216H80V224H88V216Z" fill="black"/>
<path d="M88 224H80V232H88V224Z" fill="black"/>
<path d="M88 240H80V248H88V240Z" fill="black"/>
<path d="M88 256H80V264H88V256Z" fill="black"/>
<path d="M96 0H88V8H96V0Z" fill="black"/>
<path d="M96 32H88V40H96V32Z" fill="black"/>
<path d="M96 56H88V64H96V56Z" fill="black"/>
<path d="M96 64H88V72H96V64Z" fill="black"/>
<path d="M96 80H88V88H96V80Z" fill="black"/>
<path d="M96 88H88V96H96V88Z" fill="black"/>
<path d="M96 96H88V104H96V96Z" fill="black"/>
<path d="M96 112H88V120H96V112Z" fill="black"/>
<path d="M96 120H88V128H96V120Z" fill="black"/>
<path d="M96 136H88V144H96V136Z" fill="black"/>
<path d="M96 144H88V152H96V144Z" fill="black"/>
<path d="M96 224H88V232H96V224Z" fill="black"/>
<path d="M96 232H88V240H96V232Z" fill="black"/>
<path d="M96 248H88V256H96V248Z" fill="black"/>
<path d="M96 256H88V264H96V256Z" fill="black"/>
<path d="M104 0H96V8H104V0Z" fill="black"/>
<path d="M104 16H96V24H104V16Z" fill="black"/>
<path d="M104 24H96V32H104V24Z" fill="black"/>
<path d="M104 40H96V48H104V40Z" fill="black"/>
<path d="M104 48H96V56H104V48Z" fill="black"/>
<path d="M104 72H96V80H104V72Z" fill="black"/>
<path d="M104 88H96V96H104V88Z" fill="black"/>
<path d="M104 96H96V104H104V96Z" fill="black"/>
<path d="M104 112H96V120H104V112Z" fill="black"/>
<path d="M104 136H96V144H104V136Z" fill="black"/>
<path d="M104 152H96V160H104V152Z" fill="black"/>
<path d="M104 160H96V168H104V160Z" fill="black"/>
<path d="M104 176H96V184H104V176Z" fill="black"/>
<path d="M104 200H96V208H104V200Z" fill="black"/>
<path d="M104 216H96V224H104V216Z" fill="black"/>
<path d="M104 224H96V232H104V224Z" fill="black"/>
<path d="M104 240H96V248H104V240Z" fill="black"/>
<path d="M112 56H104V64H112V56Z" fill="black"/>
<path d="M112 64H104V72H112V64Z" fill="black"/>
<path d="M112 72H104V80H112V72Z" fill="black"/>
<path d="M112 80H104V88H112V80Z" fill="black"/>
<path d="M112 88H104V96H112V88Z" fill="black"/>
<path d="M112 96H104V104H112V96Z" fill="black"/>
<path d="M112 104H104V112H112V104Z" fill="black"/>
<path d="M112 112H104V120H112V112Z" fill="black"/>
<path d="M112 136H104V144H112V136Z" fill="black"/>
<path d="M112 160H104V168H112V160Z" fill="black"/>
<path d="M112 192H104V200H112V192Z" fill="black"/>
<path d="M112 216H104V224H112V216Z" fill="black"/>
<path d="M112 240H104V248H112V240Z" fill="black"/>
<path d="M112 248H104V256H112V248Z" fill="black"/>
<path d="M112 256H104V264H112V256Z" fill="black"/>
<path d="M120 32H112V40H120V32Z" fill="black"/>
<path d="M120 48H112V56H120V48Z" fill="black"/>
<path d="M120 104H112V112H120V104Z" fill="black"/>
<path d="M120 128H112V136H120V128Z" fill="black"/>
<path d="M120 136H112V144H120V136Z" fill="black"/>
<path d="M120 152H112V160H120V152Z" fill="black"/>
<path d="M120 160H112V168H120V160Z" fill="black"/>
<path d="M120 168H112V176H120V168Z" fill="black"/>
<path d="M120 176H112V184H120V176Z" fill="black"/>
<path d="M120 184H112V192H120V184Z" fill="black"/>
<path d="M120 192H112V200H120V192Z" fill="black"/>
<path d="M120 208H112V216H120V208Z" fill="black"/>
<path d="M120 216H112V224H120V216Z" fill="black"/>
<path d="M120 240H112V248H120V240Z" fill="black"/>
<path d="M128 0H120V8H128V0Z" fill="black"/>
<path d="M128 16H120V24H128V16Z" fill="black"/>
<path d="M128 32H120V40H128V32Z" fill="black"/>
<path d="M128 40H120V48H128V40Z" fill="black"/>
<path d="M128 56H120V64H128V56Z" fill="black"/>
<path d="M128 80H120V88H128V80Z" fill="black"/>
<path d="M128 88H120V96H128V88Z" fill="black"/>
<path d="M128 104H120V112H128V104Z" fill="black"/>
<path d="M128 112H120V120H128V112Z" fill="black"/>
<path d="M128 128H120V136H128V128Z" fill="black"/>
<path d="M128 136H120V144H128V136Z" fill="black"/>
<path d="M128 144H120V152H128V144Z" fill="black"/>
<path d="M128 160H120V168H128V160Z" fill="black"/>
<path d="M128 168H120V176H128V168Z" fill="black"/>
<path d="M128 176H120V184H128V176Z" fill="black"/>
<path d="M128 200H120V208H128V200Z" fill="black"/>
<path d="M128 208H120V216H128V208Z" fill="black"/>
<path d="M128 216H120V224H128V216Z" fill="black"/>
<path d="M128 224H120V232H128V224Z" fill="black"/>
<path d="M128 232H120V240H128V232Z" fill="black"/>
<path d="M128 240H120V248H128V240Z" fill="black"/>
<path d="M136 0H128V8H136V0Z" fill="black"/>
<path d="M136 8H128V16H136V8Z" fill="black"/>
<path d="M136 16H128V24H136V16Z" fill="black"/>
<path d="M136 24H128V32H136V24Z" fill="black"/>
<path d="M136 32H128V40H136V32Z" fill="black"/>
<path d="M136 40H128V48H136V40Z" fill="black"/>
<path d="M136 48H128V56H136V48Z" fill="black"/>
<path d="M136 56H128V64H136V56Z" fill="black"/>
<path d="M136 64H128V72H136V64Z" fill="black"/>
<path d="M136 72H128V80H136V72Z" fill="black"/>
<path d="M136 80H128V88H136V80Z" fill="black"/>
<path d="M136 88H128V96H136V88Z" fill="black"/>
<path d="M136 96H128V104H136V96Z" fill="black"/>
<path d="M136 104H128V112H136V104Z" fill="black"/>
<path d="M136 152H128V160H136V152Z" fill="black"/>
<path d="M136 160H128V168H136V160Z" fill="black"/>
<path d="M136 184H128V192H136V184Z" fill="black"/>
<path d="M136 192H128V200H136V192Z" fill="black"/>
<path d="M136 200H128V208H136V200Z" fill="black"/>
<path d="M136 216H128V224H136V216Z" fill="black"/>
<path d="M136 256H128V264H136V256Z" fill="black"/>
<path d="M144 24H136V32H144V24Z" fill="black"/>
<path d="M144 32H136V40H144V32Z" fill="black"/>
<path d="M144 40H136V48H144V40Z" fill="black"/>
<path d="M144 64H136V72H144V64Z" fill="black"/>
<path d="M144 72H136V80H144V72Z" fill="black"/>
<path d="M144 80H136V88H144V80Z" fill="black"/>
<path d="M144 88H136V96H144V88Z" fill="black"/>
<path d="M144 112H136V120H144V112Z" fill="black"/>
<path d="M144 160H136V168H144V160Z" fill="black"/>
<path d="M144 168H136V176H144V168Z" fill="black"/>
<path d="M144 176H136V184H144V176Z" fill="black"/>
<path d="M144 184H136V192H144V184Z" fill="black"/>
<path d="M144 200H136V208H144V200Z" fill="black"/>
<path d="M144 208H136V216H144V208Z" fill="black"/>
<path d="M144 240H136V248H144V240Z" fill="black"/>
<path d="M144 256H136V264H144V256Z" fill="black"/>
<path d="M152 0H144V8H152V0Z" fill="black"/>
<path d="M152 8H144V16H152V8Z" fill="black"/>
<path d="M152 32H144V40H152V32Z" fill="black"/>
<path d="M152 48H144V56H152V48Z" fill="black"/>
<path d="M152 56H144V64H152V56Z" fill="black"/>
<path d="M152 64H144V72H152V64Z" fill="black"/>
<path d="M152 104H144V112H152V104Z" fill="black"/>
<path d="M152 112H144V120H152V112Z" fill="black"/>
<path d="M152 136H144V144H152V136Z" fill="black"/>
<path d="M152 168H144V176H152V168Z" fill="black"/>
<path d="M152 192H144V200H152V192Z" fill="black"/>
<path d="M152 200H144V208H152V200Z" fill="black"/>
<path d="M152 216H144V224H152V216Z" fill="black"/>
<path d="M152 232H144V240H152V232Z" fill="black"/>
<path d="M152 248H144V256H152V248Z" fill="black"/>
<path d="M160 8H152V16H160V8Z" fill="black"/>
<path d="M160 24H152V32H160V24Z" fill="black"/>
<path d="M160 32H152V40H160V32Z" fill="black"/>
<path d="M160 64H152V72H160V64Z" fill="black"/>
<path d="M160 72H152V80H160V72Z" fill="black"/>
<path d="M160 112H152V120H160V112Z" fill="black"/>
<path d="M160 128H152V136H160V128Z" fill="black"/>
<path d="M160 136H152V144H160V136Z" fill="black"/>
<path d="M160 144H152V152H160V144Z" fill="black"/>
<path d="M160 152H152V160H160V152Z" fill="black"/>
<path d="M160 160H152V168H160V160Z" fill="black"/>
<path d="M160 168H152V176H160V168Z" fill="black"/>
<path d="M160 192H152V200H160V192Z" fill="black"/>
<path d="M160 208H152V216H160V208Z" fill="black"/>
<path d="M160 232H152V240H160V232Z" fill="black"/>
<path d="M160 240H152V248H160V240Z" fill="black"/>
<path d="M160 248H152V256H160V248Z" fill="black"/>
<path d="M160 256H152V264H160V256Z" fill="black"/>
<path d="M168 16H160V24H168V16Z" fill="black"/>
<path d="M168 32H160V40H168V32Z" fill="black"/>
<path d="M168 40H160V48H168V40Z" fill="black"/>
<path d="M168 48H160V56H168V48Z" fill="black"/>
<path d="M168 56H160V64H168V56Z" fill="black"/>
<path d="M168 64H160V72H168V64Z" fill="black"/>
<path d="M168 80H160V88H168V80Z" fill="black"/>
<path d="M168 88H160V96H168V88Z" fill="black"/>
<path d="M168 96H160V104H168V96Z" fill="black"/>
<path d="M168 112H160V120H168V112Z" fill="black"/>
<path d="M168 120H160V128H168V120Z" fill="black"/>
<path d="M168 128H160V136H168V128Z" fill="black"/>
<path d="M168 136H160V144H168V136Z" fill="black"/>
<path d="M168 152H160V160H168V152Z" fill="black"/>
<path d="M168 176H160V184H168V176Z" fill="black"/>
<path d="M168 184H160V192H168V184Z" fill="black"/>
<path d="M168 208H160V216H168V208Z" fill="black"/>
<path d="M168 224H160V232H168V224Z" fill="black"/>
<path d="M168 232H160V240H168V232Z" fill="black"/>
<path d="M168 240H160V248H168V240Z" fill="black"/>
<path d="M176 0H168V8H176V0Z" fill="black"/>
<path d="M176 8H168V16H176V8Z" fill="black"/>
<path d="M176 16H168V24H176V16Z" fill="black"/>
<path d="M176 24H168V32H176V24Z" fill="black"/>
<path d="M176 32H168V40H176V32Z" fill="black"/>
<path d="M176 72H168V80H176V72Z" fill="black"/>
<path d="M176 112H168V120H176V112Z" fill="black"/>
<path d="M176 144H168V152H176V144Z" fill="black"/>
<path d="M176 176H168V184H176V176Z" fill="black"/>
<path d="M176 232H168V240H176V232Z" fill="black"/>
<path d="M184 16H176V24H184V16Z" fill="black"/>
<path d="M184 48H176V56H184V48Z" fill="black"/>
<path d="M184 56H176V64H184V56Z" fill="black"/>
<path d="M184 64H176V72H184V64Z" fill="black"/>
<path d="M184 72H176V80H184V72Z" fill="black"/>
<path d="M184 80H176V88H184V80Z" fill="black"/>
<path d="M184 112H176V120H184V112Z" fill="black"/>
<path d="M184 128H176V136H184V128Z" fill="black"/>
<path d="M184 144H176V152H184V144Z" fill="black"/>
<path d="M184 184H176V192H184V184Z" fill="black"/>
<path d="M184 200H176V208H184V200Z" fill="black"/>
<path d="M184 208H176V216H184V208Z" fill="black"/>
<path d="M184 232H176V240H184V232Z" fill="black"/>
<path d="M184 248H176V256H184V248Z" fill="black"/>
<path d="M192 16H184V24H192V16Z" fill="black"/>
<path d="M192 24H184V32H192V24Z" fill="black"/>
<path d="M192 40H184V48H192V40Z" fill="black"/>
<path d="M192 72H184V80H192V72Z" fill="black"/>
<path d="M192 80H184V88H192V80Z" fill="black"/>
<path d="M192 96H184V104H192V96Z" fill="black"/>
<path d="M192 104H184V112H192V104Z" fill="black"/>
<path d="M192 120H184V128H192V120Z" fill="black"/>
<path d="M192 144H184V152H192V144Z" fill="black"/>
<path d="M192 160H184V168H192V160Z" fill="black"/>
<path d="M192 168H184V176H192V168Z" fill="black"/>
<path d="M192 176H184V184H192V176Z" fill="black"/>
<path d="M192 208H184V216H192V208Z" fill="black"/>
<path d="M192 216H184V224H192V216Z" fill="black"/>
<path d="M192 224H184V232H192V224Z" fill="black"/>
<path d="M192 240H184V248H192V240Z" fill="black"/>
<path d="M192 256H184V264H192V256Z" fill="black"/>
<path d="M200 24H192V32H200V24Z" fill="black"/>
<path d="M200 40H192V48H200V40Z" fill="black"/>
<path d="M200 48H192V56H200V48Z" fill="black"/>
<path d="M200 88H192V96H200V88Z" fill="black"/>
<path d="M200 128H192V136H200V128Z" fill="black"/>
<path d="M200 136H192V144H200V136Z" fill="black"/>
<path d="M200 160H192V168H200V160Z" fill="black"/>
<path d="M200 192H192V200H200V192Z" fill="black"/>
<path d="M200 200H192V208H200V200Z" fill="black"/>
<path d="M200 208H192V216H200V208Z" fill="black"/>
<path d="M200 216H192V224H200V216Z" fill="black"/>
<path d="M200 224H192V232H200V224Z" fill="black"/>
<path d="M200 240H192V248H200V240Z" fill="black"/>
<path d="M200 256H192V264H200V256Z" fill="black"/>
<path d="M208 80H200V88H208V80Z" fill="black"/>
<path d="M208 88H200V96H208V88Z" fill="black"/>
<path d="M208 104H200V112H208V104Z" fill="black"/>
<path d="M208 120H200V128H208V120Z" fill="black"/>
<path d="M208 128H200V136H208V128Z" fill="black"/>
<path d="M208 152H200V160H208V152Z" fill="black"/>
<path d="M208 176H200V184H208V176Z" fill="black"/>
<path d="M208 184H200V192H208V184Z" fill="black"/>
<path d="M208 192H200V200H208V192Z" fill="black"/>
<path d="M208 224H200V232H208V224Z" fill="black"/>
<path d="M208 240H200V248H208V240Z" fill="black"/>
<path d="M208 256H200V264H208V256Z" fill="black"/>
<path d="M216 0H208V8H216V0Z" fill="black"/>
<path d="M216 8H208V16H216V8Z" fill="black"/>
<path d="M216 16H208V24H216V16Z" fill="black"/>
<path d="M216 24H208V32H216V24Z" fill="black"/>
<path d="M216 32H208V40H216V32Z" fill="black"/>
<path d="M216 40H208V48H216V40Z" fill="black"/>
<path d="M216 48H208V56H216V48Z" fill="black"/>
<path d="M216 64H208V72H216V64Z" fill="black"/>
<path d="M216 88H208V96H216V88Z" fill="black"/>
<path d="M216 96H208V104H216V96Z" fill="black"/>
<path d="M216 128H208V136H216V128Z" fill="black"/>
<path d="M216 136H208V144H216V136Z" fill="black"/>
<path d="M216 152H208V160H216V152Z" fill="black"/>
<path d="M216 176H208V184H216V176Z" fill="black"/>
<path d="M216 192H208V200H216V192Z" fill="black"/>
<path d="M216 208H208V216H216V208Z" fill="black"/>
<path d="M216 224H208V232H216V224Z" fill="black"/>
<path d="M216 256H208V264H216V256Z" fill="black"/>
<path d="M224 0H216V8H224V0Z" fill="black"/>
<path d="M224 48H216V56H224V48Z" fill="black"/>
<path d="M224 72H216V80H224V72Z" fill="black"/>
<path d="M224 88H216V96H224V88Z" fill="black"/>
<path d="M224 96H216V104H224V96Z" fill="black"/>
<path d="M224 104H216V112H224V104Z" fill="black"/>
<path d="M224 120H216V128H224V120Z" fill="black"/>
<path d="M224 128H216V136H224V128Z" fill="black"/>
<path d="M224 136H216V144H224V136Z" fill="black"/>
<path d="M224 144H216V152H224V144Z" fill="black"/>
<path d="M224 152H216V160H224V152Z" fill="black"/>
<path d="M224 160H216V168H224V160Z" fill="black"/>
<path d="M224 192H216V200H224V192Z" fill="black"/>
<path d="M224 224H216V232H224V224Z" fill="black"/>
<path d="M224 232H216V240H224V232Z" fill="black"/>
<path d="M224 248H216V256H224V248Z" fill="black"/>
<path d="M224 256H216V264H224V256Z" fill="black"/>
<path d="M232 0H224V8H232V0Z" fill="black"/>
<path d="M232 16H224V24H232V16Z" fill="black"/>
<path d="M232 24H224V32H232V24Z" fill="black"/>
<path d="M232 32H224V40H232V32Z" fill="black"/>
<path d="M232 48H224V56H232V48Z" fill="black"/>
<path d="M232 72H224V80H232V72Z" fill="black"/>
<path d="M232 80H224V88H232V80Z" fill="black"/>
<path d="M232 120H224V128H232V120Z" fill="black"/>
<path d="M232 128H224V136H232V128Z" fill="black"/>
<path d="M232 136H224V144H232V136Z" fill="black"/>
<path d="M232 152H224V160H232V152Z" fill="black"/>
<path d="M232 168H224V176H232V168Z" fill="black"/>
<path d="M232 192H224V200H232V192Z" fill="black"/>
<path d="M232 200H224V208H232V200Z" fill="black"/>
<path d="M232 208H224V216H232V208Z" fill="black"/>
<path d="M232 216H224V224H232V216Z" fill="black"/>
<path d="M232 224H224V232H232V224Z" fill="black"/>
<path d="M232 240H224V248H232V240Z" fill="black"/>
<path d="M232 256H224V264H232V256Z" fill="black"/>
<path d="M240 0H232V8H240V0Z" fill="black"/>
<path d="M240 16H232V24H240V16Z" fill="black"/>
<path d="M240 24H232V32H240V24Z" fill="black"/>
<path d="M240 32H232V40H240V32Z" fill="black"/>
<path d="M240 48H232V56H240V48Z" fill="black"/>
<path d="M240 88H232V96H240V88Z" fill="black"/>
<path d="M240 128H232V136H240V128Z" fill="black"/>
<path d="M240 168H232V176H240V168Z" fill="black"/>
<path d="M240 216H232V224H240V216Z" fill="black"/>
<path d="M240 224H232V232H240V224Z" fill="black"/>
<path d="M240 240H232V248H240V240Z" fill="black"/>
<path d="M240 248H232V256H240V248Z" fill="black"/>
<path d="M248 0H240V8H248V0Z" fill="black"/>
<path d="M248 16H240V24H248V16Z" fill="black"/>
<path d="M248 24H240V32H248V24Z" fill="black"/>
<path d="M248 32H240V40H248V32Z" fill="black"/>
<path d="M248 48H240V56H248V48Z" fill="black"/>
<path d="M248 72H240V80H248V72Z" fill="black"/>
<path d="M248 88H240V96H248V88Z" fill="black"/>
<path d="M248 120H240V128H248V120Z" fill="black"/>
<path d="M248 152H240V160H248V152Z" fill="black"/>
<path d="M248 184H240V192H248V184Z" fill="black"/>
<path d="M248 200H240V208H248V200Z" fill="black"/>
<path d="M248 208H240V216H248V208Z" fill="black"/>
<path d="M248 216H240V224H248V216Z" fill="black"/>
<path d="M248 240H240V248H248V240Z" fill="black"/>
<path d="M248 248H240V256H248V248Z" fill="black"/>
<path d="M256 0H248V8H256V0Z" fill="black"/>
<path d="M256 48H248V56H256V48Z" fill="black"/>
<path d="M256 72H248V80H256V72Z" fill="black"/>
<path d="M256 80H248V88H256V80Z" fill="black"/>
<path d="M256 96H248V104H256V96Z" fill="black"/>
<path d="M256 128H248V136H256V128Z" fill="black"/>
<path d="M256 136H248V144H256V136Z" fill="black"/>
<path d="M256 152H248V160H256V152Z" fill="black"/>
<path d="M256 168H248V176H256V168Z" fill="black"/>
<path d="M256 176H248V184H256V176Z" fill="black"/>
<path d="M256 192H248V200H256V192Z" fill="black"/>
<path d="M256 200H248V208H256V200Z" fill="black"/>
<path d="M256 216H248V224H256V216Z" fill="black"/>
<path d="M256 232H248V240H256V232Z" fill="black"/>
<path d="M256 240H248V248H256V240Z" fill="black"/>
<path d="M256 248H248V256H256V248Z" fill="black"/>
<path d="M264 0H256V8H264V0Z" fill="black"/>
<path d="M264 8H256V16H264V8Z" fill="black"/>
<path d="M264 16H256V24H264V16Z" fill="black"/>
<path d="M264 24H256V32H264V24Z" fill="black"/>
<path d="M264 32H256V40H264V32Z" fill="black"/>
<path d="M264 40H256V48H264V40Z" fill="black"/>
<path d="M264 48H256V56H264V48Z" fill="black"/>
<path d="M264 64H256V72H264V64Z" fill="black"/>
<path d="M264 80H256V88H264V80Z" fill="black"/>
<path d="M264 96H256V104H264V96Z" fill="black"/>
<path d="M264 120H256V128H264V120Z" fill="black"/>
<path d="M264 128H256V136H264V128Z" fill="black"/>
<path d="M264 136H256V144H264V136Z" fill="black"/>
<path d="M264 144H256V152H264V144Z" fill="black"/>
<path d="M264 152H256V160H264V152Z" fill="black"/>
<path d="M264 176H256V184H264V176Z" fill="black"/>
<path d="M264 216H256V224H264V216Z" fill="black"/>
<path d="M264 232H256V240H264V232Z" fill="black"/>
<path d="M264 240H256V248H264V240Z" fill="black"/>
<path d="M264 248H256V256H264V248Z" fill="black"/>
</svg>