<svg width="199" height="198" viewBox="0 0 199 198" fill="none" xmlns="http://www.w3.org/2000/svg">
<path fill-rule="evenodd" clip-rule="evenodd" d="M136.87 26.6395C128.691 32.0807 117.577 28.3474 114.342 19.0723L113.884 17.7598C109.345 4.74672 90.9413 4.74674 86.4022 17.7598C83.1493 27.0853 71.6322 30.4419 63.7584 24.4796C52.0315 15.5995 35.7598 27.4979 40.4945 41.4248C43.8077 51.1707 36.6299 61.4869 26.3361 61.4869H21.3566C8.04888 61.4869 3.01518 78.8733 14.0361 86.332C21.8151 91.5967 21.8796 103.144 14.0592 108.347C3.47051 115.391 7.97515 131.863 20.6753 132.538L25.9876 132.821C35.9484 133.351 42.5964 143.346 39.3112 152.764C34.5154 166.513 49.9657 178.566 62.0249 170.405L63.228 169.591C71.7562 163.819 83.4381 167.743 86.7526 177.493L87.2202 178.868C91.9071 192.655 111.501 192.373 115.977 178.517C119.044 169.025 130.378 165.07 138.639 170.661L143.044 173.642C153.577 180.771 167.112 170.359 162.923 158.35C159.83 149.481 166.852 140.315 176.232 140.814C189.52 141.52 196.003 124.621 185.394 116.587L181.425 113.581C173.218 107.367 173.724 94.8096 182.248 89.0401C194.43 80.7955 188.641 61.4869 173.932 61.4869C164.055 61.4869 156.9 51.8582 159.936 42.46C164.173 29.3454 149.502 18.2354 138.027 25.8696L136.87 26.6395Z" fill="#FF725E" stroke="black" stroke-width="16"/>
</svg>
