<svg width="120" height="120" viewBox="0 0 120 120" fill="none" xmlns="http://www.w3.org/2000/svg">
<g clip-path="url(#clip0_1727_211)">
<path d="M51.6136 8.45809C54.7107 1.18064 65.2715 1.18063 68.3685 8.45808L69.228 10.4779C71.3644 15.4977 77.5865 17.4712 82.3374 14.6359L84.249 13.495C91.1366 9.3844 99.6805 15.4439 97.8041 23.1085L97.2833 25.2357C95.9889 30.5226 99.8344 35.6893 105.385 36.1213L107.619 36.2952C115.666 36.9216 118.93 46.7261 112.796 51.8502L111.094 53.2723C106.864 56.8069 106.863 63.1932 111.094 66.7277L112.796 68.1499C118.93 73.274 115.666 83.0785 107.619 83.7049L105.385 83.8787C99.8344 84.3108 95.9889 89.4775 97.2833 94.7643L97.8041 96.8916C99.6805 104.556 91.1366 110.616 84.249 106.505L82.3374 105.364C77.5865 102.529 71.3644 104.502 69.228 109.522L68.3685 111.542C65.2715 118.819 54.7107 118.819 51.6136 111.542L50.754 109.522C48.6177 104.502 42.3956 102.529 37.6446 105.364L35.7331 106.505C28.8455 110.616 20.3016 104.556 22.178 96.8916L22.6988 94.7643C23.9932 89.4775 20.1477 84.3108 14.5968 83.8787L12.3634 83.7049C4.316 83.0785 1.05255 73.274 7.18581 68.1499L8.88802 66.7277C13.1186 63.1932 13.1186 56.8069 8.88802 53.2724L7.18582 51.8502C1.05256 46.7261 4.31601 36.9216 12.3634 36.2952L14.5968 36.1213C20.1477 35.6893 23.9932 30.5226 22.6988 25.2357L22.178 23.1085C20.3016 15.4439 28.8454 9.38439 35.7331 13.495L37.6446 14.6359C42.3956 17.4712 48.6177 15.4977 50.754 10.4779L51.6136 8.45809Z" fill="#FF725E" stroke="black" stroke-width="6.0531"/>
</g>
<defs>
<clipPath id="clip0_1727_211">
<rect width="120" height="120" fill="white"/>
</clipPath>
</defs>
</svg>
